<?xml version="1.0" encoding="UTF-8"?>
<svg width="276px" height="60px" viewBox="0 0 276 60" version="1.1" xmlns="http://www.w3.org/2000/svg" xmlns:xlink="http://www.w3.org/1999/xlink">
    <title>logo-bcliquor</title>
    <g id="01-Main-Navigation-//-Approved" stroke="none" stroke-width="1" fill="none" fill-rule="evenodd">
        <g id="Approved-/-Header-Design" transform="translate(-40.000000, -44.000000)" fill-rule="nonzero">
            <g id="Group" transform="translate(40.000000, 44.000000)">
                <g id="Logo-/-Mark">
                    <rect id="Rectangle" fill="#000000" x="0" y="0" width="60" height="60"></rect>
                    <path d="M45.5833333,20.3125 C45.4583333,20.25 45.4375,20.0625 45.4583333,19.3333333 C45.4583333,19.2083333 45.4583333,19.0625 45.4583333,18.9166667 L45.4583333,12.1666667 C45.4583333,11.4583333 44.8541667,10.8958333 44.0833333,10.8958333 L41.1041667,10.8958333 C40.3541667,10.8958333 39.7291667,11.4583333 39.7291667,12.1666667 L39.7291667,18.9375 C39.7291667,19.0833333 39.7291667,19.2083333 39.7291667,19.3541667 C39.75,20.0833333 39.7083333,20.2708333 39.6041667,20.3333333 C37.3958333,21.625 35.9583333,24.1666667 35.9583333,26.7916667 L35.9583333,31.6458333 L37.7708333,31.6458333 L37.7708333,26.7916667 C37.7708333,24.5416667 39.1458333,22.7291667 40.5,21.9375 C41.5625,21.3125 41.5416667,20.2083333 41.5416667,19.3333333 C41.5416667,19.2083333 41.5416667,19.0833333 41.5416667,18.9583333 L41.5416667,12.7291667 L43.625,12.7291667 L43.625,18.9166667 C43.625,19.0416667 43.625,19.1666667 43.625,19.2916667 C43.6041667,20.1666667 43.5833333,21.2708333 44.6666667,21.8958333 C46.0208333,22.6875 47.3958333,24.5208333 47.3958333,26.75 L47.3958333,49.1666667 L49.2083333,49.1666667 L49.2083333,26.7708333 C49.2083333,24.1458333 47.7916667,21.625 45.5833333,20.3125 Z" id="Path" fill="#EA0029"></path>
                    <polygon id="Path" fill="#FFFFFF" points="37.75 47.4791667 37.75 34.6875 35.9583333 34.6875 35.9583333 49.1875 45.0625 49.1875 45.0625 47.4791667"></polygon>
                    <path d="M34.8541667,37.2291667 L33.0208333,38.9166667 C32.1041667,38.0208333 30.8541667,37.5 29.4791667,37.5 C27,37.5 25.0416667,39.3958333 25.0416667,42.125 C25.0416667,44.875 27,46.75 29.4791667,46.75 C30.875,46.75 32.1041667,46.25 33.0208333,45.3333333 L34.8541667,47.0208333 C33.5,48.4791667 31.5833333,49.3958333 29.4583333,49.3958333 C25.4375,49.3958333 22.1875,46.125 22.1875,42.1041667 C22.1875,38.0833333 25.4375,34.8125 29.4583333,34.8125 C31.6041667,34.875 33.5208333,35.7916667 34.8541667,37.2291667 Z" id="Path" fill="#FFFFFF"></path>
                    <path d="M16.1875,34.8958333 C20.3333333,34.8958333 21.0208333,37.2916667 21.0208333,38.6875 C21.0208333,40.2708333 20.25,41.2708333 19.1458333,41.7291667 C20.625,42.0833333 21.5833333,43.375 21.5833333,45.0833333 C21.5833333,47.3541667 20.3125,49.1875 16.2916667,49.1875 L10.6875,49.1875 L10.6875,34.9166667 L16.1875,34.9166667 L16.1875,34.8958333 Z M13.5,40.6041667 L16.5,40.6041667 C18,40.6041667 18.375,39.75 18.375,39.0833333 C18.375,38.4375 18.0833333,37.5625 16.5,37.5625 L13.5,37.5625 L13.5,40.6041667 Z M13.5,46.5 L16.8958333,46.5 C18.4166667,46.5 18.9375,45.6875 18.9375,44.7708333 C18.9375,43.875 18.375,43.0416667 16.8958333,43.0416667 L13.5,43.0416667 L13.5,46.5 Z" id="Shape" fill="#FFFFFF"></path>
                </g>
                <g transform="translate(76.000000, 21.000000)" fill="#000000" id="Logo-/-Type">
                    <path d="M186.75303,0.706699346 C194.943585,0.706699346 199.456749,5.51295518 199.456749,11.6450747 C199.456749,15.9541317 197.11659,19.2273576 193.146678,20.7603875 C194.400334,21.547619 195.695779,23.0392157 197.492687,25.856676 L200,29.7099673 L193.522775,29.7099673 L191.64229,26.8096405 C189.385708,23.3706816 188.675303,22.7077498 185.791893,22.6248833 L182.574175,22.6248833 L182.574175,29.7099673 L176.807355,29.7099673 L176.807355,0.706699346 L186.75303,0.706699346 L186.75303,0.706699346 Z M182.574175,17.2385621 L187.296281,17.2385621 C191.05725,17.2385621 193.982449,15.5397993 193.982449,11.6450747 C193.982449,7.95751634 191.05725,6.09302054 187.296281,6.09302054 L182.574175,6.09302054 L182.574175,17.2385621 Z" id="Shape"></path>
                    <path d="M174.383619,15.2083333 C174.383619,23.4121148 167.697451,30 159.465107,30 C151.232762,30 144.588383,23.4121148 144.588383,15.2083333 C144.588383,7.04598506 151.232762,0.416666667 159.465107,0.416666667 C167.697451,0.416666667 174.383619,7.04598506 174.383619,15.2083333 Z M150.355203,15.2083333 C150.355203,20.8018207 154.366903,24.6136788 159.465107,24.6136788 C164.605098,24.6136788 168.616799,20.8018207 168.616799,15.2083333 C168.616799,9.65627918 164.605098,5.80298786 159.465107,5.80298786 C154.366903,5.80298786 150.355203,9.65627918 150.355203,15.2083333 Z" id="Shape"></path>
                    <path d="M141.537819,17.5285948 C141.537819,25.8981092 135.812787,30 129.66987,30 C123.485165,30 117.801922,25.8981092 117.801922,17.5285948 L117.801922,0.706699346 L123.568742,0.706699346 L123.568742,17.4042951 C123.568742,22.8320495 126.619306,24.6136788 129.66987,24.6136788 C132.720435,24.6136788 135.770999,22.8320495 135.770999,17.4042951 L135.770999,0.706699346 L141.537819,0.706699346 L141.537819,17.5285948 Z" id="Path"></path>
                    <path d="M113.748433,15.2083333 C113.748433,19.0201914 112.035102,22.4591503 109.444212,24.6136788 L115.294609,24.6136788 L115.294609,30 L98.8299206,30 C90.5975763,30 83.9531968,23.4121148 83.9531968,15.2083333 C83.9531968,7.04598506 90.5975763,0.416666667 98.8299206,0.416666667 C107.062265,0.416666667 113.748433,7.04598506 113.748433,15.2083333 Z M89.7200167,15.2083333 C89.7200167,20.8018207 93.7317175,24.6136788 98.8299206,24.6136788 C103.969912,24.6136788 107.981613,20.8018207 107.981613,15.2083333 C107.981613,9.65627918 103.969912,5.80298786 98.8299206,5.80298786 C93.7317175,5.80298786 89.7200167,9.65627918 89.7200167,15.2083333 Z" id="Shape"></path>
                    <polygon id="Path" points="75.302967 0.706699346 80.6519014 0.706699346 80.6519014 29.7099673 75.302967 29.7099673"></polygon>
                    <polygon id="Path" points="53.3221897 29.7099673 53.3221897 0.706699346 59.0890096 0.706699346 59.0890096 24.3236461 72.2524028 24.3236461 72.2524028 29.7099673"></polygon>
                    <path d="M50.3552027,5.2229225 L46.5942332,8.66188142 C44.7137484,6.83881886 42.1646469,5.80298786 39.3230255,5.80298786 C34.2248224,5.80298786 30.2131216,9.65627918 30.2131216,15.2083333 C30.2131216,20.8018207 34.2248224,24.6136788 39.3230255,24.6136788 C42.1646469,24.6136788 44.7137484,23.619281 46.5942332,21.7547852 L50.3552027,25.1937442 C47.5971584,28.1355042 43.6690347,30 39.3230255,30 C31.0906812,30 24.4463017,23.3706816 24.4463017,15.2083333 C24.4463017,7.04598506 31.0906812,0.416666667 39.3230255,0.416666667 C43.6690347,0.416666667 47.5971584,2.28116246 50.3552027,5.2229225 Z" id="Path"></path>
                    <path d="M11.2829085,0.706699346 C19.7659841,0.706699346 21.1867948,5.55438842 21.1867948,8.41328198 C21.1867948,11.6450747 19.5988299,13.6753035 17.3422482,14.5868347 C20.3928124,15.2911998 22.3150857,17.9429272 22.3150857,21.3818861 C22.3150857,25.9809757 19.7241956,29.7099673 11.4918512,29.7099673 L-2.96059473e-15,29.7099673 L-2.96059473e-15,0.706699346 L11.2829085,0.706699346 Z M5.76681989,12.3080065 L11.9097367,12.3080065 C15.0020894,12.3080065 15.7542833,10.5678105 15.7542833,9.20051354 C15.7542833,7.87464986 15.1692436,6.09302054 11.9097367,6.09302054 L5.76681989,6.09302054 L5.76681989,12.3080065 Z M5.76681989,24.2822129 L12.7037192,24.2822129 C15.8378604,24.2822129 16.8825742,22.6248833 16.8825742,20.7603875 C16.8825742,18.9373249 15.7124948,17.2385621 12.7037192,17.2385621 L5.76681989,17.2385621 L5.76681989,24.2822129 Z" id="Shape"></path>
                </g>
            </g>
        </g>
    </g>
</svg>